<svg width="16" height="16" viewBox="0 0 16 16" fill="none" xmlns="http://www.w3.org/2000/svg">
<g id="information-circle" clip-path="url(#clip0_1458_13241)">
<g id="Icon">
<path d="M7.33366 4H8.67366V5.33333H7.33366V4Z" fill="#2D67D8"/>
<path d="M8.66699 6.66666V12H7.33366V6.66666H8.66699Z" fill="#2D67D8"/>
<path fill-rule="evenodd" clip-rule="evenodd" d="M0.666992 8C0.666992 3.94991 3.95024 0.666664 8.00033 0.666664C12.0504 0.666664 15.3337 3.94991 15.3337 8C15.3337 12.0501 12.0504 15.3333 8.00033 15.3333C3.95024 15.3333 0.666992 12.0501 0.666992 8ZM8.00033 2C4.68662 2 2.00033 4.68629 2.00033 8C2.00033 11.3137 4.68662 14 8.00033 14C11.314 14 14.0003 11.3137 14.0003 8C14.0003 4.68629 11.314 2 8.00033 2Z" fill="#2D67D8"/>
</g>
</g>
<defs>
<clipPath id="clip0_1458_13241">
<rect width="16" height="16" fill="white"/>
</clipPath>
</defs>
</svg>
