<svg width="16" height="16" viewBox="0 0 16 16" fill="none" xmlns="http://www.w3.org/2000/svg">
<g id="phone-call" clip-path="url(#clip0_1458_13383)">
<g id="Icon">
<path fill-rule="evenodd" clip-rule="evenodd" d="M0.667969 0.666504H5.2145L6.05833 4.88562L4.27723 6.66672C4.96779 9.10832 6.89282 11.0333 9.33442 11.7239L11.1155 9.94281L15.3346 10.7866V15.3332H11.3346C5.4436 15.3332 0.667969 10.5575 0.667969 4.6665V0.666504ZM2.0013 1.99984V4.6665C2.0013 9.82116 6.17998 13.9998 11.3346 13.9998H14.0013V11.8797L11.5538 11.3902L9.74781 13.1961L9.38817 13.1136C6.16406 12.3734 3.6277 9.83708 2.88756 6.61297L2.805 6.25333L4.61094 4.44739L4.12143 1.99984H2.0013Z" fill="#2D67D8"/>
<path d="M8.0013 0.666504H8.66797C12.3499 0.666504 15.3346 3.65127 15.3346 7.33317V7.99984H14.0013V7.33317C14.0013 4.38765 11.6135 1.99984 8.66797 1.99984H8.0013V0.666504Z" fill="#2D67D8"/>
<path d="M8.0013 3.33317H8.66797C10.8771 3.33317 12.668 5.12403 12.668 7.33317V7.99984H11.3346V7.33317C11.3346 5.86041 10.1407 4.6665 8.66797 4.6665H8.0013V3.33317Z" fill="#2D67D8"/>
</g>
</g>
<defs>
<clipPath id="clip0_1458_13383">
<rect width="16" height="16" fill="white"/>
</clipPath>
</defs>
</svg>
