<svg width="24" height="24" viewBox="0 0 24 24" fill="none" xmlns="http://www.w3.org/2000/svg">
    <path d="M19.7424 3.94797C19.2184 3.46443 17.1006 1.92713 12.3835 1.90625C12.3835 1.90625 6.82069 1.57082 4.10894 4.05809C2.59942 5.56786 2.06839 7.77697 2.01238 10.5158C1.95637 13.2547 1.8839 18.3874 6.83177 19.7792H6.83652L6.83335 21.9028C6.83335 21.9028 6.80171 22.7626 7.36786 22.9379C8.05268 23.1506 8.45458 22.4971 9.10839 21.7927C9.46726 21.406 9.96284 20.838 10.3363 20.4038C13.7202 20.6886 16.3228 20.0377 16.6183 19.9415C17.3016 19.72 21.1678 19.2248 21.7966 14.0923C22.4457 8.80226 21.4827 5.45615 19.7424 3.94797Z"
          fill="white"/>
    <path d="M18.645 5.01828C18.202 4.61576 16.2896 3.41421 12.2994 3.39681C12.2994 3.39681 7.57428 3.08637 5.28056 5.16385C4.00396 6.42425 3.57389 8.29857 3.52674 10.5858C3.47958 12.8731 3.23527 17.2426 7.41921 18.4049C7.41921 18.4049 7.40275 21.6488 7.40086 21.934C7.40086 22.1333 7.4325 22.2697 7.54643 22.2979C7.62839 22.3178 7.75118 22.2754 7.85561 22.1713C8.52461 21.4995 10.6664 18.9157 10.6664 18.9157C13.5402 19.1033 15.8266 18.5359 16.0725 18.4556C16.6523 18.2692 19.7881 17.9999 20.3188 13.7133C20.8672 9.29474 20.1172 6.27869 18.645 5.01828Z"
          fill="#9233E8"/>
    <path d="M14.3326 10.3969C14.2807 9.35073 13.7493 8.80128 12.7383 8.74854" stroke="white" stroke-width="0.533542"
          stroke-linecap="round" stroke-linejoin="round"/>
    <path d="M15.6998 10.8567C15.7209 9.88204 15.4322 9.06772 14.8337 8.41373C14.2324 7.75742 13.4001 7.39603 12.332 7.31787"
          stroke="white" stroke-width="0.533542" stroke-linecap="round" stroke-linejoin="round"/>
    <path d="M17.0987 11.4048C17.0858 9.71351 16.5805 8.38148 15.5825 7.40872C14.5846 6.43597 13.3436 5.94442 11.8594 5.93408"
          stroke="white" stroke-width="0.533542" stroke-linecap="round" stroke-linejoin="round"/>
    <path d="M12.7849 13.9712C12.7849 13.9712 13.16 14.0028 13.3619 13.7541L13.7555 13.2588C13.9454 13.0133 14.4036 12.8566 14.8524 13.1066C15.1887 13.2984 15.5151 13.5069 15.8306 13.7313C16.1284 13.9503 16.7382 14.4591 16.7401 14.4591C17.0306 14.7044 17.0977 15.0645 16.8999 15.4442C16.8999 15.4464 16.8983 15.4502 16.8983 15.4521C16.6805 15.8298 16.4039 16.1703 16.079 16.461C16.0752 16.4629 16.0752 16.4648 16.0717 16.4667C15.7894 16.7025 15.5121 16.8366 15.2397 16.8689C15.1996 16.8759 15.1589 16.8784 15.1182 16.8765C14.9981 16.8776 14.8786 16.8592 14.7644 16.822L14.7556 16.8091C14.3359 16.6907 13.6353 16.3945 12.4685 15.7509C11.7933 15.3828 11.1505 14.9582 10.5469 14.4816C10.2444 14.2428 9.95586 13.987 9.68268 13.7152L9.65356 13.686L9.62445 13.6569L9.59533 13.6278C9.58552 13.6183 9.57603 13.6085 9.56622 13.5987C9.29441 13.3255 9.0385 13.037 8.79975 12.7345C8.32322 12.131 7.8986 11.4884 7.53042 10.8133C6.88674 9.64628 6.59053 8.9463 6.47218 8.52606L6.4592 8.51719C6.4221 8.40298 6.40383 8.28349 6.40509 8.16341C6.40287 8.12276 6.40531 8.08199 6.41237 8.04189C6.44633 7.76996 6.58062 7.49243 6.81522 7.20932C6.81712 7.20584 6.81902 7.20584 6.82092 7.20204C7.11152 6.87715 7.4521 6.60069 7.8298 6.38308C7.8317 6.38308 7.83549 6.38118 7.83771 6.38118C8.21746 6.1834 8.57759 6.25049 8.82254 6.5394C8.82443 6.5413 9.33236 7.15109 9.5504 7.44887C9.77484 7.7646 9.98334 8.09137 10.1751 8.42796C10.4251 8.87636 10.2684 9.33553 10.0229 9.52476L9.52761 9.91842C9.27761 10.1203 9.31052 10.4953 9.31052 10.4953C9.31052 10.4953 10.0441 13.2715 12.7849 13.9712Z"
          fill="white"/>
</svg>